<svg width="36" height="36" viewBox="0 0 36 36" fill="none" xmlns="http://www.w3.org/2000/svg">
<g filter="url(#filter0_dii_989_5476)">
<rect x="2" y="1" width="32" height="32" rx="6" fill="white" shape-rendering="crispEdges"/>
<rect x="2.5" y="1.5" width="31" height="31" rx="5.5" stroke="#079455" shape-rendering="crispEdges"/>
<g clip-path="url(#clip0_989_5476)">
<path d="M26.3863 20.5328L23.0204 21.5806C22.345 21.7915 21.8099 22.2387 21.5595 22.8074L20.3148 25.6412C19.5217 27.4526 16.4784 27.4526 15.6815 25.6412L14.4368 22.8074C14.1864 22.2387 13.6551 21.7915 12.9758 21.5806L9.61374 20.5328C7.46209 19.8619 7.46209 17.2997 9.61374 16.6288L12.9758 15.5809C13.1428 15.5298 13.3022 15.4627 13.4501 15.3828C14.8353 15.9163 16.3759 16.2134 18 16.2134C19.624 16.2134 21.161 15.9163 22.546 15.3828C22.6941 15.4627 22.8534 15.5298 23.0204 15.5809L26.3863 16.6288C28.5379 17.2997 28.5379 19.8619 26.3863 20.5328Z" fill="#079455"/>
<path d="M26.8453 12.4247C25.7411 13.6962 24.2649 14.7217 22.5459 15.383C22.0981 15.1402 21.749 14.7824 21.5593 14.3543L20.3146 11.5205C19.5215 9.70913 16.4782 9.70913 15.6813 11.5205L14.4366 14.3543C14.2469 14.7824 13.9016 15.1402 13.4499 15.383C11.7348 14.7217 10.2548 13.6962 9.1544 12.4247C7.20009 10.1724 9.1658 7 12.4786 7H23.5173C26.8301 7 28.7958 10.1724 26.8453 12.4247Z" fill="#079455"/>
</g>
</g>
<defs>
<filter id="filter0_dii_989_5476" x="0" y="0" width="36" height="36" filterUnits="userSpaceOnUse" color-interpolation-filters="sRGB">
<feFlood flood-opacity="0" result="BackgroundImageFix"/>
<feColorMatrix in="SourceAlpha" type="matrix" values="0 0 0 0 0 0 0 0 0 0 0 0 0 0 0 0 0 0 127 0" result="hardAlpha"/>
<feOffset dy="1"/>
<feGaussianBlur stdDeviation="1"/>
<feComposite in2="hardAlpha" operator="out"/>
<feColorMatrix type="matrix" values="0 0 0 0 0.0627451 0 0 0 0 0.0941176 0 0 0 0 0.156863 0 0 0 0.05 0"/>
<feBlend mode="normal" in2="BackgroundImageFix" result="effect1_dropShadow_989_5476"/>
<feBlend mode="normal" in="SourceGraphic" in2="effect1_dropShadow_989_5476" result="shape"/>
<feColorMatrix in="SourceAlpha" type="matrix" values="0 0 0 0 0 0 0 0 0 0 0 0 0 0 0 0 0 0 127 0" result="hardAlpha"/>
<feOffset dy="-2"/>
<feComposite in2="hardAlpha" operator="arithmetic" k2="-1" k3="1"/>
<feColorMatrix type="matrix" values="0 0 0 0 0.0392157 0 0 0 0 0.0496732 0 0 0 0 0.0705882 0 0 0 0.05 0"/>
<feBlend mode="normal" in2="shape" result="effect2_innerShadow_989_5476"/>
<feColorMatrix in="SourceAlpha" type="matrix" values="0 0 0 0 0 0 0 0 0 0 0 0 0 0 0 0 0 0 127 0" result="hardAlpha"/>
<feMorphology radius="1" operator="erode" in="SourceAlpha" result="effect3_innerShadow_989_5476"/>
<feOffset/>
<feComposite in2="hardAlpha" operator="arithmetic" k2="-1" k3="1"/>
<feColorMatrix type="matrix" values="0 0 0 0 0.0392157 0 0 0 0 0.0496732 0 0 0 0 0.0705882 0 0 0 0.18 0"/>
<feBlend mode="normal" in2="effect2_innerShadow_989_5476" result="effect3_innerShadow_989_5476"/>
</filter>
<clipPath id="clip0_989_5476">
<rect width="20" height="20" fill="white" transform="translate(8 7)"/>
</clipPath>
</defs>
</svg>
